<svg width="1024" height="1024" viewBox="0 0 37 37" fill="none" xmlns="http://www.w3.org/2000/svg">
<rect width="37" height="37" rx="8" fill="#303030"/>
<path d="M11 12.5C12.1603 9.50094 15 6 19 6C23 6 25.3658 9.30622 27 12.5C24.055 10.3189 22.7141 8.73684 19 8.73684C15.2859 8.73684 13.6482 10.0355 11 12.5Z" fill="#F13914"/>
<path d="M11.0094 29.5658V16C10.7385 16 16.4063 16 16.4063 16V21.5111H21.5153V16H26.9361C26.9361 16 27.0015 29.3241 27 29.5658C26.9985 29.8075 26.8326 29.9898 26.5003 29.9898C26.1679 29.9898 21.5153 30 21.5153 30V24.7262H16.4063V30C16.4063 30 11.7867 29.9898 11.5095 29.9898C11.2323 29.9898 11.0098 29.9898 11.0094 29.5658Z" fill="white"/>
</svg>
