<svg width="100" height="25" viewBox="0 0 100 25" fill="none" xmlns="http://www.w3.org/2000/svg">
<path d="M24 9.5C25.0152 5.11676 27.5 6.90713e-10 31 3.45357e-10C34.5 0 36.57 4.83216 38 9.5C35.4231 6.31223 34.2498 4 31 4C27.7502 4 26.3172 5.89806 24 9.5Z" fill="#F13914"/>
<g clip-path="url(#clip0_195_65)">
<path d="M0.320068 23.9998V7.48779H5.72007V13.7038H10.8321V7.48779H16.2561V23.9998H10.8321V17.4958H5.72007V23.9998H0.320068ZM24.0209 24.1918C22.6609 24.1918 21.4609 23.9278 20.4209 23.3998C19.3809 22.8718 18.5649 22.1438 17.9729 21.2158C17.3969 20.2718 17.1089 19.1918 17.1089 17.9758C17.1089 16.7278 17.4049 15.6478 17.9969 14.7358C18.6049 13.8078 19.4289 13.0878 20.4689 12.5758C21.5089 12.0638 22.7009 11.8078 24.0449 11.8078C25.4209 11.8078 26.6289 12.0718 27.6689 12.5998C28.7089 13.1118 29.5169 13.8318 30.0929 14.7598C30.6689 15.6718 30.9569 16.7438 30.9569 17.9758C30.9569 19.2078 30.6609 20.2958 30.0689 21.2398C29.4929 22.1678 28.6849 22.8958 27.6449 23.4238C26.6049 23.9358 25.3969 24.1918 24.0209 24.1918ZM24.0689 20.5918C24.7249 20.5918 25.2609 20.3518 25.6769 19.8718C26.1089 19.3758 26.3249 18.7438 26.3249 17.9758C26.3249 17.2078 26.1169 16.5838 25.7009 16.1038C25.2849 15.6078 24.7569 15.3598 24.1169 15.3598C23.4289 15.3598 22.8689 15.6078 22.4369 16.1038C22.0209 16.5838 21.8129 17.2078 21.8129 17.9758C21.8129 18.7438 22.0209 19.3758 22.4369 19.8718C22.8689 20.3518 23.4129 20.5918 24.0689 20.5918ZM38.1077 24.1918C36.7477 24.1918 35.5477 23.9278 34.5077 23.3998C33.4677 22.8718 32.6517 22.1438 32.0597 21.2158C31.4837 20.2718 31.1957 19.1918 31.1957 17.9758C31.1957 16.7278 31.4917 15.6478 32.0837 14.7358C32.6917 13.8078 33.5157 13.0878 34.5557 12.5758C35.5957 12.0638 36.7877 11.8078 38.1317 11.8078C39.5077 11.8078 40.7157 12.0718 41.7557 12.5998C42.7957 13.1118 43.6037 13.8318 44.1797 14.7598C44.7557 15.6718 45.0437 16.7438 45.0437 17.9758C45.0437 19.2078 44.7477 20.2958 44.1557 21.2398C43.5797 22.1678 42.7717 22.8958 41.7317 23.4238C40.6917 23.9358 39.4837 24.1918 38.1077 24.1918ZM38.1557 20.5918C38.8117 20.5918 39.3477 20.3518 39.7637 19.8718C40.1957 19.3758 40.4117 18.7438 40.4117 17.9758C40.4117 17.2078 40.2037 16.5838 39.7877 16.1038C39.3717 15.6078 38.8437 15.3598 38.2037 15.3598C37.5157 15.3598 36.9557 15.6078 36.5237 16.1038C36.1077 16.5838 35.8997 17.2078 35.8997 17.9758C35.8997 18.7438 36.1077 19.3758 36.5237 19.8718C36.9557 20.3518 37.4997 20.5918 38.1557 20.5918ZM52.102 23.9998H45.862V7.48779H52.606C55.246 7.48779 57.182 7.85579 58.414 8.59179C59.646 9.31179 60.262 10.3118 60.262 11.5918C60.262 13.2558 59.39 14.3998 57.646 15.0238C59.886 15.4558 61.006 16.7758 61.006 18.9838C61.006 20.6798 60.23 21.9438 58.678 22.7758C57.142 23.5918 54.95 23.9998 52.102 23.9998ZM51.214 14.0158H53.11C53.75 14.0158 54.27 13.8718 54.67 13.5838C55.07 13.2958 55.27 12.9118 55.27 12.4318C55.27 11.3278 54.518 10.7758 53.014 10.7758H51.214V14.0158ZM53.254 20.6158C54.054 20.6158 54.67 20.4558 55.102 20.1358C55.534 19.8158 55.75 19.3678 55.75 18.7918C55.75 18.1678 55.534 17.6878 55.102 17.3518C54.67 16.9998 54.054 16.8238 53.254 16.8238H51.19V20.6158H53.254ZM67.1485 24.1918C66.0445 24.1918 65.0445 23.9278 64.1485 23.3998C63.2525 22.8558 62.5405 22.1118 62.0125 21.1678C61.5005 20.2238 61.2445 19.1438 61.2445 17.9278C61.2445 16.7118 61.5005 15.6478 62.0125 14.7358C62.5405 13.8238 63.2525 13.1118 64.1485 12.5998C65.0445 12.0718 66.0445 11.8078 67.1485 11.8078C67.9325 11.8078 68.6925 12.0238 69.4285 12.4558C70.1645 12.8878 70.7325 13.5998 71.1325 14.5918V11.9758H76.1245V23.9998H71.0845V21.7678C70.7005 22.5518 70.1885 23.1518 69.5485 23.5678C68.9085 23.9838 68.1085 24.1918 67.1485 24.1918ZM68.7085 20.3998C69.3645 20.3998 69.9245 20.1678 70.3885 19.7038C70.8525 19.2238 71.0845 18.6398 71.0845 17.9518C71.0845 17.2638 70.8525 16.7038 70.3885 16.2718C69.9245 15.8238 69.3645 15.5998 68.7085 15.5998C68.0205 15.5998 67.4445 15.8318 66.9805 16.2958C66.5165 16.7598 66.2845 17.3278 66.2845 17.9998C66.2845 18.6718 66.5165 19.2398 66.9805 19.7038C67.4445 20.1678 68.0205 20.3998 68.7085 20.3998ZM81.436 24.1918C80.716 24.1918 79.988 24.1198 79.252 23.9758C78.516 23.8318 77.852 23.6318 77.26 23.3758L77.956 20.3518C78.324 20.5438 78.828 20.7118 79.468 20.8558C80.108 20.9838 80.676 21.0478 81.172 21.0478C81.972 21.0478 82.372 20.8318 82.372 20.3998C82.372 20.1918 82.244 20.0398 81.988 19.9438C81.748 19.8478 81.428 19.7678 81.028 19.7038C80.644 19.6238 80.228 19.5278 79.78 19.4158C79.332 19.2878 78.908 19.1038 78.508 18.8638C78.124 18.6078 77.804 18.2478 77.548 17.7838C77.308 17.3198 77.188 16.7118 77.188 15.9598C77.188 14.6958 77.684 13.6878 78.676 12.9358C79.684 12.1838 81.06 11.8078 82.804 11.8078C83.476 11.8078 84.1 11.8558 84.676 11.9518C85.268 12.0478 85.828 12.2478 86.356 12.5518L85.852 15.4798C85.004 15.1278 84.116 14.9518 83.188 14.9518C82.596 14.9518 82.164 14.9998 81.892 15.0958C81.636 15.1918 81.508 15.3518 81.508 15.5758C81.508 15.7518 81.636 15.8878 81.892 15.9838C82.148 16.0798 82.476 16.1758 82.876 16.2718C83.292 16.3518 83.724 16.4718 84.172 16.6318C84.62 16.7758 85.044 16.9838 85.444 17.2558C85.86 17.5278 86.196 17.8958 86.452 18.3598C86.708 18.8078 86.836 19.3918 86.836 20.1118C86.836 21.3918 86.364 22.3918 85.42 23.1118C84.476 23.8318 83.148 24.1918 81.436 24.1918ZM95.0213 20.8318C95.4853 20.8318 95.9733 20.7838 96.4853 20.6878C97.0133 20.5918 97.5493 20.4158 98.0933 20.1598L98.6693 23.2558C98.0773 23.5598 97.4293 23.7918 96.7253 23.9518C96.0373 24.1118 95.2453 24.1918 94.3493 24.1918C92.7333 24.1918 91.3733 23.9278 90.2693 23.3998C89.1813 22.8718 88.3573 22.1438 87.7973 21.2158C87.2373 20.2878 86.9573 19.2158 86.9573 17.9998C86.9573 16.7518 87.2533 15.6638 87.8453 14.7358C88.4533 13.8078 89.2613 13.0878 90.2693 12.5758C91.2773 12.0638 92.3893 11.8078 93.6053 11.8078C95.4133 11.8078 96.7973 12.3758 97.7573 13.5118C98.7173 14.6318 99.1973 16.2318 99.1973 18.3118L92.0453 19.2238C92.5733 20.2958 93.5653 20.8318 95.0213 20.8318ZM91.6613 17.0158L95.4293 16.2238C95.3653 15.7118 95.1893 15.3358 94.9013 15.0958C94.6133 14.8398 94.2533 14.7118 93.8213 14.7118C93.1813 14.7118 92.6693 14.9358 92.2853 15.3838C91.9173 15.8158 91.7093 16.3598 91.6613 17.0158Z" fill="black"/>
</g>
<defs>
<clipPath id="clip0_195_65">
<rect width="100" height="18" fill="white" transform="translate(0 7)"/>
</clipPath>
</defs>
</svg>
