<svg width="14" height="14" viewBox="0 0 14 14" fill="none" xmlns="http://www.w3.org/2000/svg">
<path d="M5.5 7.75C5.69891 7.75 5.88968 7.82902 6.03033 7.96967C6.17098 8.11032 6.25 8.30109 6.25 8.5V13C6.25 13.1989 6.17098 13.3897 6.03033 13.5303C5.88968 13.671 5.69891 13.75 5.5 13.75H1C0.801088 13.75 0.610322 13.671 0.46967 13.5303C0.329018 13.3897 0.25 13.1989 0.25 13V8.5C0.25 8.30109 0.329018 8.11032 0.46967 7.96967C0.610322 7.82902 0.801088 7.75 1 7.75H5.5ZM13 7.75C13.1989 7.75 13.3897 7.82902 13.5303 7.96967C13.671 8.11032 13.75 8.30109 13.75 8.5V13C13.75 13.1989 13.671 13.3897 13.5303 13.5303C13.3897 13.671 13.1989 13.75 13 13.75H8.5C8.30109 13.75 8.11032 13.671 7.96967 13.5303C7.82902 13.3897 7.75 13.1989 7.75 13V8.5C7.75 8.30109 7.82902 8.11032 7.96967 7.96967C8.11032 7.82902 8.30109 7.75 8.5 7.75H13ZM1.75 12.25H4.75V9.25H1.75V12.25ZM9.25 12.25H12.25V9.25H9.25V12.25ZM10.3975 0.49C10.4256 0.419489 10.4742 0.359032 10.5371 0.316441C10.5999 0.273851 10.6741 0.251085 10.75 0.251085C10.8259 0.251085 10.9001 0.273851 10.9629 0.316441C11.0258 0.359032 11.0744 0.419489 11.1025 0.49L11.293 0.9475C11.6114 1.72381 12.2153 2.34845 12.9805 2.69275L13.5198 2.93275C13.5886 2.96461 13.6469 3.01551 13.6878 3.07943C13.7286 3.14335 13.7503 3.21764 13.7503 3.2935C13.7503 3.36937 13.7286 3.44365 13.6878 3.50757C13.6469 3.57149 13.5886 3.62239 13.5198 3.65425L12.9498 3.90775C12.2035 4.24234 11.6097 4.84443 11.2855 5.59525L11.1002 6.01975C11.0714 6.08887 11.0228 6.14792 10.9604 6.18946C10.8981 6.23099 10.8249 6.25315 10.75 6.25315C10.6751 6.25315 10.6019 6.23099 10.5396 6.18946C10.4772 6.14792 10.4286 6.08887 10.3998 6.01975L10.2153 5.596C9.89101 4.84476 9.29692 4.24237 8.55025 3.90775L7.98025 3.65425C7.91119 3.62248 7.85269 3.57158 7.81168 3.50757C7.77066 3.44357 7.74887 3.36914 7.74887 3.29312C7.74887 3.21711 7.77066 3.14268 7.81168 3.07868C7.85269 3.01467 7.91119 2.96377 7.98025 2.932L8.51875 2.692C9.28391 2.34821 9.88813 1.72413 10.207 0.94825L10.3975 0.49ZM5.5 0.25C5.69891 0.25 5.88968 0.329018 6.03033 0.46967C6.17098 0.610322 6.25 0.801088 6.25 1V5.5C6.25 5.69891 6.17098 5.88968 6.03033 6.03033C5.88968 6.17098 5.69891 6.25 5.5 6.25H1C0.801088 6.25 0.610322 6.17098 0.46967 6.03033C0.329018 5.88968 0.25 5.69891 0.25 5.5V1C0.25 0.801088 0.329018 0.610322 0.46967 0.46967C0.610322 0.329018 0.801088 0.25 1 0.25H5.5ZM1.75 4.75H4.75V1.75H1.75V4.75Z" fill="black"/>
</svg>
