<svg width="24" height="24" viewBox="0 0 24 24" fill="none" xmlns="http://www.w3.org/2000/svg">
<path d="M14.04 14.863L13.154 17.962C12.822 19.122 11.178 19.122 10.846 17.962L9.96101 14.863C9.90498 14.667 9.79992 14.4884 9.65575 14.3443C9.51158 14.2001 9.33305 14.095 9.13701 14.039L6.03801 13.154C4.87801 12.822 4.87801 11.178 6.03801 10.846L9.13701 9.96101C9.33305 9.90498 9.51158 9.79992 9.65575 9.65575C9.79992 9.51158 9.90498 9.33305 9.96101 9.13701L10.846 6.03801C11.178 4.87801 12.822 4.87801 13.154 6.03801L14.039 9.13701C14.095 9.33305 14.2001 9.51158 14.3443 9.65575C14.4884 9.79992 14.667 9.90498 14.863 9.96101L17.962 10.846C19.122 11.178 19.122 12.822 17.962 13.154L14.863 14.039C14.667 14.095 14.4884 14.2001 14.3443 14.3443C14.2001 14.4884 14.095 14.667 14.039 14.863M19.57 19.716L19.194 21.224C19.144 21.426 18.857 21.426 18.806 21.224L18.429 19.716C18.4202 19.681 18.402 19.649 18.3765 19.6235C18.351 19.598 18.319 19.5798 18.284 19.571L16.776 19.194C16.574 19.144 16.574 18.857 16.776 18.806L18.284 18.429C18.319 18.4202 18.351 18.402 18.3765 18.3765C18.402 18.351 18.4202 18.319 18.429 18.284L18.806 16.776C18.856 16.574 19.143 16.574 19.194 16.776L19.571 18.284C19.5798 18.319 19.598 18.351 19.6235 18.3765C19.649 18.402 19.681 18.4202 19.716 18.429L21.224 18.806C21.426 18.856 21.426 19.143 21.224 19.194L19.716 19.571C19.681 19.5798 19.649 19.598 19.6235 19.6235C19.598 19.649 19.5788 19.681 19.57 19.716ZM5.57001 5.71601L5.19401 7.22401C5.14401 7.42601 4.85601 7.42601 4.80601 7.22401L4.42901 5.71601C4.42018 5.68101 4.40204 5.64904 4.37651 5.62351C4.35098 5.59799 4.31902 5.57984 4.28401 5.57101L2.77601 5.19401C2.57401 5.14401 2.57401 4.85601 2.77601 4.80601L4.28401 4.42901C4.31902 4.42018 4.35098 4.40204 4.37651 4.37651C4.40204 4.35098 4.42018 4.31902 4.42901 4.28401L4.80601 2.77601C4.85601 2.57401 5.14401 2.57401 5.19401 2.77601L5.57101 4.28401C5.57984 4.31902 5.59799 4.35098 5.62351 4.37651C5.64904 4.40204 5.68101 4.42018 5.71601 4.42901L7.22401 4.80601C7.42601 4.85601 7.42601 5.14401 7.22401 5.19401L5.71601 5.57101C5.68101 5.57984 5.64904 5.59799 5.62351 5.62351C5.59799 5.64904 5.57884 5.68101 5.57001 5.71601Z" stroke="white" stroke-width="1.5" stroke-miterlimit="10" stroke-linecap="round" stroke-linejoin="round"/>
</svg>
